<?xml version="1.0" encoding="UTF-8"?>
<svg width="875px" height="278px" viewBox="0 0 875 278" version="1.1" xmlns="http://www.w3.org/2000/svg" xmlns:xlink="http://www.w3.org/1999/xlink">
    <title>Group 2 Copy 2</title>
    <g id="Page-1" stroke="none" stroke-width="1" fill="none" fill-rule="evenodd">
        <g id="Group-2-Copy-2">
            <g id="Group-19" transform="translate(262.800000, 209.000000)" fill="#00B189" font-family="WorkSans-SemiBold, Work Sans" font-weight="500">
                <text id="™" font-size="36" letter-spacing="-0.923077011">
                    <tspan x="320.4" y="40.2">™</tspan>
                </text>
                <text id="Win-retail." font-size="64.8" line-spacing="68.4">
                    <tspan x="0" y="60">Win</tspan>
                    <tspan x="122.148" y="60" letter-spacing="-5.03999977"> </tspan>
                    <tspan x="136.9368" y="60">retail.</tspan>
                </text>
            </g>
            <g id="Tactiq-Logo-0516_horiz-reversecolor" fill-rule="nonzero">
                <polygon id="Path" fill="#00B189" points="224.928 0.2 96.804 0.2 85.788 28.856 184.68 28.856 139.14 147.44 168.408 147.44"></polygon>
                <g id="Group" fill="#131E29">
                    <polygon id="Path" points="0 176.096 128.124 176.096 139.14 147.44 40.284 147.44 85.788 28.856 56.52 28.856"></polygon>
                    <path d="M461.412,143.336 L461.412,84.26 C461.412,52.112 438.372,36.884 404.928,36.884 C375.732,36.884 355.14,50.528 348.696,71.696 L370.908,83.468 C376.524,66.584 388.836,59.384 405.432,59.384 C422.82,59.384 432.756,69.824 432.756,85.88 L432.756,92.828 L398.772,98.984 C363.708,105.14 346.572,120.404 346.572,140.996 C346.572,164.288 365.04,176.06 390.204,176.06 C410.004,176.06 427.14,168.824 435.456,155.972 C447.048,183.26 475.632,176.204 484.956,172.496 L476.748,150.5 C474.732,152.768 461.412,156.116 461.412,143.336 Z M432.756,128.972 C432.756,145.028 414.288,154.424 396.36,154.424 C383.796,154.424 376.272,149.06 376.272,139.16 C376.272,119.036 432.756,115.328 432.756,115.328 L432.756,128.972 Z" id="Shape"></path>
                    <path d="M545.184,36.884 C503.424,36.884 478.512,62.84 478.512,106.508 C478.512,150.14 503.424,176.132 545.724,176.132 C576.792,176.132 596.844,160.616 604.368,136.244 L578.124,127.388 C578.124,127.388 569.484,150.5 545.184,150.5 C521.64,150.5 507.42,137.036 507.42,106.76 C507.42,76.52 521.352,62.552 545.184,62.552 C567.864,62.552 576.504,85.088 576.504,85.088 L603.288,74.396 C594.972,52.4 577.584,36.884 545.184,36.884 Z" id="Path"></path>
                    <path d="M849.528,39.584 L848.196,64.316 C840.384,47.936 824.004,36.884 802.512,36.884 C765.972,36.884 743.112,62.696 743.112,106.508 C743.112,150.572 766.224,176.672 802.764,176.672 C822.672,176.672 837.972,166.988 846.036,152.228 L846.036,230.456 L874.8,230.456 L874.8,39.584 L849.528,39.584 Z M846.036,108.38 C846.036,136.316 831.528,153.272 808.956,153.272 C785.844,153.272 771.876,136.064 771.876,106.76 C771.876,77.456 785.844,59.996 808.956,59.996 C831.528,59.996 846.036,76.916 846.036,105.14 L846.036,108.38 Z" id="Shape"></path>
                    <rect id="Rectangle" x="703.116" y="40.16" width="28.656" height="133.272"></rect>
                    <rect id="Rectangle" x="703.116" y="0.2" width="28.656" height="28.656"></rect>
                    <path d="M329.508,139.916 C324.216,145.496 290.808,159.356 290.808,133.256 L290.808,67.304 L328.284,67.304 L338.724,40.124 L290.808,40.124 L290.808,0.2 L262.152,0.2 L262.152,138.08 C262.404,165.656 280.08,176.096 303.12,176.096 C317.592,176.096 330.156,171.812 338.724,164.576 L329.508,139.916 Z" id="Path"></path>
                    <path d="M682.992,139.916 C677.052,145.496 644.292,159.356 644.292,133.256 L644.292,67.304 L681.768,67.304 L692.208,40.124 L644.292,40.124 L644.292,0.164 L615.636,0.164 L615.636,138.044 C615.888,165.62 633.564,176.06 656.604,176.06 C671.076,176.06 683.64,171.776 692.208,164.54 L682.992,139.916 Z" id="Path"></path>
                </g>
            </g>
        </g>
    </g>
</svg>